<svg width="30" height="16" viewBox="0 0 30 16" fill="none" xmlns="http://www.w3.org/2000/svg">
<path d="M24.8911 11.869C24.7826 11.7394 24.6526 11.6358 24.5086 11.5644C24.3646 11.4929 24.2095 11.4551 24.0526 11.4531H0.577102C0.465091 11.4539 0.355641 11.4915 0.261825 11.5614C0.16801 11.6314 0.0937932 11.7307 0.048041 11.8476C0.00306116 11.9639 -0.0107047 12.093 0.00848503 12.2183C0.028263 12.3449 0.0786968 12.459 0.154842 12.554L5.10131 18.5839C5.20712 18.7139 5.33865 18.819 5.48105 18.8891C5.62642 18.9614 5.78068 18.9965 5.9399 18.9999H29.4163C29.5277 19.0002 29.6366 18.9631 29.7296 18.8931C29.8227 18.8232 29.8956 18.7235 29.9395 18.6065C29.9846 18.4903 29.9985 18.3613 29.9795 18.2359C29.9605 18.1106 29.9094 17.9945 29.8327 17.9024L24.8882 11.8724L24.8911 11.869ZM0.576113 7.54011H24.0526C24.2103 7.53915 24.3663 7.50227 24.5114 7.4316C24.6568 7.35926 24.7853 7.25754 24.8911 7.12417L29.8455 1.09759C29.9027 1.02778 29.9458 0.944495 29.9718 0.853601C29.9977 0.762708 30.006 0.666412 29.9959 0.57149C29.9858 0.476568 29.9576 0.385325 29.9134 0.304181C29.8691 0.223038 29.8098 0.153966 29.7397 0.101824C29.6445 0.0321452 29.5333 -0.00329094 29.4203 0.000100483H5.9399C5.78365 0.000100483 5.62642 0.0385295 5.48105 0.107476C5.33685 0.178572 5.20744 0.283728 5.10131 0.416038L0.154842 6.44262C0.0791714 6.53595 0.0288065 6.65235 0.00985027 6.77774C-0.00910598 6.90312 0.00416009 7.0321 0.048041 7.14903C0.0938689 7.26551 0.167995 7.36449 0.261607 7.43422C0.355219 7.50394 0.46438 7.54148 0.576113 7.54237V7.54011Z" fill="url(#paint0_linear_1_99)"/>
<defs>
<linearGradient id="paint0_linear_1_99" x1="2.53318" y1="31.1762" x2="30.6718" y2="3.22554" gradientUnits="userSpaceOnUse">
<stop offset="0.08" stop-color="#FF4545"/>
<stop offset="0.3" stop-color="#F38A52"/>
<stop offset="0.5" stop-color="#8AD554"/>
<stop offset="0.6" stop-color="#43B4CA"/>
<stop offset="0.72" stop-color="#285FE0"/>
<stop offset="0.97" stop-color="#C319FB"/>
</linearGradient>
</defs>
</svg>
