<svg width="17" height="17" viewBox="0 0 17 17" fill="none" xmlns="http://www.w3.org/2000/svg">
<g clip-path="url(#clip0_1_125)">
<path fill-rule="evenodd" clip-rule="evenodd" d="M8.47571 0.359375C4.05804 0.359375 0.475708 4.03171 0.475708 8.56171C0.475708 12.186 2.76804 15.2607 5.94671 16.345C6.34671 16.421 6.49337 16.1674 6.49337 15.9507C6.49337 15.755 6.48571 15.109 6.48238 14.4237C4.25671 14.9197 3.78704 13.4557 3.78704 13.4557C3.42304 12.5077 2.89871 12.2557 2.89871 12.2557C2.17304 11.7464 2.95371 11.757 2.95371 11.757C3.75704 11.8147 4.18004 12.602 4.18004 12.602C4.89337 13.856 6.05137 13.4937 6.50804 13.284C6.57971 12.754 6.78704 12.392 7.01571 12.1874C5.23904 11.9797 3.37104 11.2764 3.37104 8.13338C3.37104 7.23804 3.68337 6.50604 4.19537 5.93171C4.11204 5.72504 3.83837 4.89071 4.27271 3.76104C4.27271 3.76104 4.94471 3.54071 6.47337 4.60171C7.11137 4.42004 7.79604 4.32904 8.47571 4.32571C9.15571 4.32904 9.84071 4.42004 10.48 4.60171C12.0067 3.54071 12.6777 3.76104 12.6777 3.76104C13.113 4.89104 12.839 5.72504 12.756 5.93171C13.2694 6.50604 13.5794 7.23804 13.5794 8.13338C13.5794 11.284 11.708 11.9777 9.92637 12.1807C10.2134 12.4354 10.469 12.9344 10.469 13.6997C10.469 14.797 10.46 15.6804 10.46 15.9507C10.46 16.169 10.604 16.4247 11.0094 16.344C14.1864 15.2584 16.4757 12.1847 16.4757 8.56171C16.4757 4.03171 12.894 0.359375 8.47571 0.359375Z" fill="black"/>
<path fill-rule="evenodd" clip-rule="evenodd" d="M3.5057 12.1364C3.48804 12.1774 3.4257 12.1894 3.3687 12.1614C3.3107 12.1348 3.27804 12.0791 3.2967 12.0381C3.31404 11.9961 3.3767 11.9848 3.4347 12.0124C3.4927 12.0394 3.5257 12.0958 3.5057 12.1364ZM3.8297 12.5071C3.7917 12.5431 3.71704 12.5264 3.66637 12.4691C3.61404 12.4118 3.60437 12.3354 3.64304 12.2988C3.68237 12.2621 3.7547 12.2794 3.80704 12.3364C3.85937 12.3944 3.8697 12.4704 3.8297 12.5071ZM4.14504 12.9794C4.09637 13.0144 4.01604 12.9818 3.96637 12.9088C3.91737 12.8354 3.91737 12.7481 3.9677 12.7131C4.01737 12.6781 4.09604 12.7098 4.14637 12.7821C4.19537 12.8561 4.19537 12.9438 4.14504 12.9794ZM4.57737 13.4361C4.53337 13.4854 4.44004 13.4721 4.3717 13.4044C4.3017 13.3384 4.28237 13.2444 4.32637 13.1948C4.3707 13.1451 4.4647 13.1591 4.53337 13.2261C4.60304 13.2921 4.62404 13.3868 4.57737 13.4361ZM5.17337 13.7008C5.15404 13.7651 5.06404 13.7941 4.97337 13.7671C4.88337 13.7388 4.82404 13.6638 4.84204 13.5988C4.86104 13.5341 4.95137 13.5034 5.0427 13.5328C5.1327 13.5608 5.19237 13.6354 5.17337 13.7008ZM5.82837 13.7501C5.83037 13.8178 5.7537 13.8734 5.65837 13.8748C5.5627 13.8771 5.48537 13.8224 5.48437 13.7558C5.48437 13.6874 5.5597 13.6321 5.65504 13.6304C5.75037 13.6284 5.82837 13.6828 5.82837 13.7501ZM6.43737 13.6438C6.4487 13.7098 6.3827 13.7774 6.28837 13.7954C6.19537 13.8128 6.10937 13.7721 6.0977 13.7068C6.08604 13.6391 6.15337 13.5711 6.24604 13.5534C6.3407 13.5368 6.42537 13.5771 6.43737 13.6438Z" fill="black"/>
</g>
<defs>
<clipPath id="clip0_1_125">
<rect width="16" height="16" fill="white" transform="translate(0.475708 0.359375)"/>
</clipPath>
</defs>
</svg>
