<svg width="16" height="17" viewBox="0 0 16 17" fill="none" xmlns="http://www.w3.org/2000/svg">
<path d="M15.5333 5.22596C15.5333 5.09263 15.3333 4.02596 14.8666 3.55929C14.2666 2.89263 13.6 2.82596 13.2666 2.82596H13.2C11.1333 2.69263 8.06665 2.69263 7.99998 2.69263C7.99998 2.69263 4.86665 2.69263 2.79998 2.82596H2.73331C2.39998 2.82596 1.73331 2.89263 1.13331 3.55929C0.666646 4.09263 0.466646 5.15929 0.466646 5.29263C0.466646 5.35929 0.333313 6.55929 0.333313 7.82596V8.95929C0.333313 10.226 0.466646 11.426 0.466646 11.4926C0.466646 11.626 0.666646 12.6926 1.13331 13.1593C1.66665 13.7593 2.33331 13.826 2.73331 13.8926H2.93331C4.13331 14.026 7.79998 14.026 7.93331 14.026C7.93331 14.026 11.0666 14.026 13.1333 13.8926H13.2C13.5333 13.826 14.2 13.7593 14.8 13.1593C15.2666 12.626 15.4666 11.5593 15.4666 11.426C15.4666 11.3593 15.6 10.1593 15.6 8.89263V7.75929C15.6666 6.55929 15.5333 5.29263 15.5333 5.22596ZM10.6 8.49263L6.59998 10.626C6.53331 10.626 6.53331 10.6926 6.46665 10.6926C6.39998 10.6926 6.33331 10.6926 6.33331 10.626C6.26665 10.5593 6.19998 10.4926 6.19998 10.3593V6.02596C6.19998 5.89263 6.26665 5.82596 6.33331 5.75929C6.39998 5.69263 6.53331 5.69263 6.66665 5.75929L10.6666 7.89263C10.8 7.95929 10.8666 8.02596 10.8666 8.15929C10.8666 8.29263 10.7333 8.42596 10.6 8.49263Z" fill="black"/>
</svg>
