<svg width="17" height="17" viewBox="0 0 17 17" fill="none" xmlns="http://www.w3.org/2000/svg">
<path d="M15.0762 8.38641C15.0758 7.96071 14.9065 7.55256 14.6055 7.25154C14.3044 6.95053 13.8963 6.78122 13.4706 6.78077C13.0808 6.78031 12.7043 6.92277 12.4124 7.18119C11.3505 6.50168 9.93366 6.07361 8.37091 6.02733L9.32724 2.75678L11.675 3.19304C11.675 3.21223 11.6711 3.23029 11.6722 3.24948C11.6862 3.51812 11.8062 3.77023 12.0059 3.95051C12.2055 4.1308 12.4685 4.22454 12.7372 4.21117C13.0058 4.19709 13.2578 4.07706 13.438 3.87743C13.6183 3.67779 13.712 3.41482 13.6986 3.1462C13.6846 2.87756 13.5646 2.62545 13.3649 2.44517C13.1653 2.26488 12.9023 2.17114 12.6336 2.18451C12.4625 2.19362 12.2964 2.24604 12.1511 2.33685C12.0057 2.42767 11.8858 2.5539 11.8026 2.70373L11.8017 2.70345L8.97253 2.17773L7.84576 6.02676C6.27906 6.06825 4.85768 6.49407 3.7913 7.17216C3.50066 6.91926 3.12824 6.78021 2.74297 6.78077C2.31729 6.78129 1.90919 6.95062 1.60819 7.25163C1.30719 7.55263 1.13785 7.96073 1.13733 8.38641C1.13733 8.93385 1.41923 9.43897 1.87581 9.73357C1.84727 9.89475 1.83264 10.0581 1.83207 10.2218C1.83207 12.5391 4.64153 14.4246 8.09493 14.4246C11.5483 14.4246 14.3572 12.5391 14.3572 10.2215C14.3572 10.0612 14.3425 9.90317 14.3163 9.7474C14.5481 9.60372 14.7394 9.40338 14.8723 9.16526C15.0053 8.92715 15.0756 8.65911 15.0762 8.38641ZM5.11842 9.47904C5.11846 9.34947 5.14402 9.22117 5.19364 9.10148C5.24326 8.98179 5.31596 8.87304 5.40761 8.78144C5.49926 8.68985 5.60805 8.6172 5.72777 8.56765C5.84749 8.5181 5.9758 8.49262 6.10537 8.49266C6.23494 8.49269 6.36324 8.51825 6.48293 8.56787C6.60262 8.61749 6.71137 8.6902 6.80297 8.78184C6.89456 8.87349 6.96721 8.98228 7.01676 9.102C7.06631 9.22172 7.09179 9.35003 7.09176 9.4796C7.09168 9.74128 6.98766 9.99222 6.80257 10.1772C6.61748 10.3622 6.36649 10.4661 6.10481 10.466C5.84313 10.4659 5.59219 10.3619 5.40721 10.1768C5.22223 9.99171 5.11835 9.74072 5.11842 9.47904ZM10.4207 12.148C10.3914 12.1784 9.68336 12.8989 8.08336 12.8989C6.4749 12.8989 5.83151 12.1686 5.80527 12.1375C5.76458 12.0866 5.74521 12.0218 5.75122 11.9569C5.75723 11.8919 5.78816 11.8319 5.8375 11.7892C5.88685 11.7466 5.95079 11.7247 6.01591 11.7282C6.08103 11.7317 6.14227 11.7603 6.18678 11.8079C6.20146 11.8237 6.73818 12.3946 8.08308 12.3946C9.45169 12.3946 10.0516 11.8034 10.0578 11.7978C10.1052 11.7544 10.1674 11.7308 10.2316 11.7316C10.2958 11.7325 10.3573 11.7578 10.4035 11.8024C10.4498 11.8469 10.4773 11.9075 10.4805 11.9716C10.4837 12.0358 10.4623 12.099 10.4207 12.148ZM10.2246 10.4658C10.095 10.4659 9.96675 10.4404 9.84704 10.3909C9.72732 10.3414 9.61854 10.2688 9.52689 10.1772C9.43525 10.0856 9.36253 9.97691 9.3129 9.85724C9.26327 9.73757 9.2377 9.6093 9.23765 9.47974C9.23759 9.35019 9.26305 9.2219 9.31258 9.10219C9.36211 8.98247 9.43473 8.87369 9.52629 8.78204C9.61786 8.6904 9.72658 8.61768 9.84625 8.56805C9.96592 8.51842 10.0942 8.49285 10.2237 8.4928C10.4854 8.49268 10.7364 8.59651 10.9215 8.78144C11.1065 8.96637 11.2106 9.21726 11.2107 9.4789C11.2108 9.74054 11.107 9.99151 10.9221 10.1766C10.7371 10.3617 10.4862 10.4657 10.2246 10.4658Z" fill="black"/>
</svg>
