<svg width="17" height="17" viewBox="0 0 17 17" fill="none" xmlns="http://www.w3.org/2000/svg">
<path d="M15.2807 4.61113C14.7602 4.84215 14.208 4.99351 13.6424 5.06015C14.2383 4.70391 14.6841 4.14292 14.8966 3.48196C14.3368 3.81441 13.7242 4.04864 13.0853 4.17454C12.8185 3.88978 12.496 3.66288 12.1379 3.50791C11.7797 3.35295 11.3936 3.27322 11.0034 3.27368C9.42828 3.27368 8.15123 4.55074 8.15123 6.1261C8.15123 6.34934 8.17635 6.56693 8.22517 6.77606C5.85451 6.65696 3.75252 5.52158 2.34565 3.79579C2.0919 4.23112 1.95864 4.72616 1.95957 5.23004C1.95957 6.21951 2.46305 7.09271 3.22844 7.60409C2.77547 7.58972 2.3325 7.46732 1.93642 7.24708L1.93614 7.28321C1.93614 8.66497 2.9194 9.81756 4.2244 10.08C3.8042 10.1938 3.36362 10.2104 2.93605 10.1286C3.29927 11.2617 4.35252 12.0866 5.60051 12.1095C4.59021 12.9026 3.34246 13.3327 2.05806 13.3307C1.82805 13.3307 1.60086 13.3171 1.37762 13.2906C2.68179 14.1288 4.19977 14.5737 5.75009 14.5722C10.9969 14.5722 13.8657 10.2259 13.8657 6.45658C13.8657 6.33297 13.8631 6.20964 13.8578 6.08715C14.4163 5.68392 14.8982 5.18404 15.2807 4.61113Z" fill="black"/>
</svg>
