<svg width="17" height="17" viewBox="0 0 17 17" fill="none" xmlns="http://www.w3.org/2000/svg">
<g clip-path="url(#clip0_1_121)">
<path d="M6.09669 2.80518C5.58835 2.80518 4.05576 3.4269 3.78081 3.55115C3.50585 3.6754 3.20065 4.06327 2.85436 4.70342C2.50759 5.34358 2.22933 6.09192 1.7772 7.19269C1.32555 8.29347 1.2202 10.4157 1.23532 11.0634C1.25044 11.7111 1.32461 12.2171 1.98838 12.6002C2.65168 12.9829 3.23845 13.3835 3.85592 13.6244C4.47387 13.8654 4.89528 14.0388 5.18158 13.7978C5.46788 13.5569 5.65638 13.135 5.65638 13.135C5.65638 13.135 5.92756 12.7585 5.41544 12.5326C4.90332 12.3063 4.64725 12.1481 4.66946 11.9147C4.69214 11.6813 4.72946 11.5533 4.85749 11.5835C4.98552 11.6138 5.28741 12.1556 6.44724 12.4041C7.60707 12.6526 8.73761 12.6153 8.73761 12.6153C8.73761 12.6153 9.86862 12.6531 11.0285 12.4041C12.1883 12.1556 12.4897 11.6138 12.6177 11.5835C12.7458 11.5533 12.7831 11.6813 12.8058 11.9142C12.8284 12.1481 12.5724 12.3063 12.0603 12.5326C11.5481 12.7585 11.8193 13.135 11.8193 13.135C11.8193 13.135 12.0078 13.5564 12.2941 13.7978C12.5799 14.0388 13.0018 13.8654 13.6193 13.6244C14.2368 13.3835 14.824 12.9833 15.4873 12.6002C16.1511 12.2171 16.2253 11.7111 16.2404 11.0634C16.2555 10.4161 16.1501 8.29347 15.698 7.19269C15.2464 6.09192 14.9676 5.34358 14.6209 4.70342C14.275 4.06327 13.9694 3.6754 13.6949 3.55068C13.4199 3.4269 11.8869 2.80518 11.3785 2.80518C10.8702 2.80518 10.72 3.1595 10.72 3.1595L10.5428 3.55115C10.5428 3.55115 9.35225 3.32486 8.74564 3.32438C8.13903 3.32438 6.9329 3.55115 6.9329 3.55115L6.75574 3.15903C6.75574 3.15903 6.6055 2.80518 6.09669 2.80518ZM6.15196 7.50497H6.17086C6.91211 7.50497 7.51258 8.15363 7.51258 8.95346C7.51258 9.75377 6.91211 10.402 6.17086 10.402C5.42961 10.402 4.82914 9.75377 4.82914 8.95346C4.82867 8.16119 5.41827 7.51584 6.15196 7.50497ZM11.3048 7.50497H11.3237C12.0574 7.51584 12.6465 8.16166 12.6465 8.95346C12.6465 9.75377 12.0461 10.402 11.3048 10.402C10.5631 10.402 9.96311 9.75377 9.96311 8.95346C9.96311 8.15363 10.5631 7.50497 11.3048 7.50497Z" fill="black"/>
</g>
<defs>
<clipPath id="clip0_1_121">
<rect width="16" height="16" fill="white" transform="translate(0.737854 0.359375)"/>
</clipPath>
</defs>
</svg>
